<svg xmlns="http://www.w3.org/2000/svg" viewBox="0 0 64 64"><title>medicine</title><g id="medicine"><path d="M28,15H14a2,2,0,0,1-2-2V8a2,2,0,0,1,2-2h9a1,1,0,0,1,0,2H14v5H28V8H27a1,1,0,0,1,0-2h1a2,2,0,0,1,2,2v5A2,2,0,0,1,28,15Z"></path><path d="M7,35a1,1,0,0,1-1-1V33a1,1,0,0,1,2,0v1A1,1,0,0,1,7,35Z"></path><path d="M33,42a1,1,0,0,1-1-1V24a4,4,0,0,1,.68-2.23,5.05,5.05,0,0,0-1.92-1.29l-4.11-1.54A1,1,0,0,1,26,18V15H16v3a1,1,0,0,1-.65.94l-4.11,1.54A5,5,0,0,0,8,25.16V29a1,1,0,0,1-2,0V25.16a7,7,0,0,1,4.54-6.56L14,17.31V14a1,1,0,0,1,1-1H27a1,1,0,0,1,1,1v3.31l3.46,1.29a7,7,0,0,1,3.34,2.64,1,1,0,0,1-.16,1.3A2,2,0,0,0,34,24V41A1,1,0,0,1,33,42Z"></path><path d="M31,54H11a5,5,0,0,1-5-5V38a1,1,0,0,1,2,0V49a3,3,0,0,0,3,3H31a3.09,3.09,0,0,0,1-.17V45a1,1,0,0,1,2,0v7.46a1,1,0,0,1-.5.87A5,5,0,0,1,31,54Z"></path><path d="M7,35a1,1,0,0,1-1-1V33a1,1,0,0,1,2,0v1A1,1,0,0,1,7,35Z"></path><path d="M29,48H21a1,1,0,0,1,0-2h7V28H8v1a1,1,0,0,1-2,0V27a1,1,0,0,1,1-1H29a1,1,0,0,1,1,1V47A1,1,0,0,1,29,48Z"></path><path d="M17,48H7a1,1,0,0,1-1-1V38a1,1,0,0,1,2,0v8h9a1,1,0,0,1,0,2Z"></path><path d="M19.38,44a2.18,2.18,0,0,1-2.13-1.68l-.25-1-.25,1A2.18,2.18,0,0,1,14.62,44a2.21,2.21,0,0,1-2.16-1.76l-.6-2.94a4.06,4.06,0,0,0-.81-1.78,4.57,4.57,0,0,1-1-3.33A4.63,4.63,0,0,1,14.19,30a4.53,4.53,0,0,1,1.9.23,2.84,2.84,0,0,0,1.82,0,4.53,4.53,0,0,1,1.9-.23A4.63,4.63,0,0,1,24,34.19a4.57,4.57,0,0,1-1,3.33,4.06,4.06,0,0,0-.81,1.78l-.6,3A2.22,2.22,0,0,1,19.38,44ZM17,38.42a1.69,1.69,0,0,1,1.67,1.31l.52,2.12a.21.21,0,0,0,.39,0l.6-2.94a6.07,6.07,0,0,1,1.23-2.65A2.62,2.62,0,0,0,22,34.36h0a2.6,2.6,0,0,0-3.43-2.22,4.77,4.77,0,0,1-3.12,0,2.6,2.6,0,0,0-2.85,4.11,6.07,6.07,0,0,1,1.23,2.65l.6,2.94a.21.21,0,0,0,.39,0l.52-2.12A1.69,1.69,0,0,1,17,38.42Z"></path><path d="M33,42a1,1,0,0,1-1-1V24a4,4,0,0,1,4-4h5a1,1,0,0,1,0,2H36a2,2,0,0,0-2,2V41A1,1,0,0,1,33,42Z"></path><path d="M54,58H36a4,4,0,0,1-4-4V45a1,1,0,0,1,2,0v9a2,2,0,0,0,2,2H54a2,2,0,0,0,2-2V24a2,2,0,0,0-2-2H45a1,1,0,0,1,0-2h9a4,4,0,0,1,4,4V54A4,4,0,0,1,54,58Z"></path><path d="M41,30H38a3,3,0,0,1,0-6h3a3,3,0,0,1,0,6Zm-3-4a1,1,0,0,0,0,2h3a1,1,0,0,0,0-2Z"></path><path d="M52,30H49a3,3,0,0,1,0-6h3a3,3,0,0,1,0,6Zm-3-4a1,1,0,0,0,0,2h3a1,1,0,0,0,0-2Z"></path><path d="M41,38H38a3,3,0,0,1,0-6h3a3,3,0,0,1,0,6Zm-3-4a1,1,0,0,0,0,2h3a1,1,0,0,0,0-2Z"></path><path d="M52,38H49a3,3,0,0,1,0-6h3a3,3,0,0,1,0,6Zm-3-4a1,1,0,0,0,0,2h3a1,1,0,0,0,0-2Z"></path><path d="M41,46H38a3,3,0,0,1,0-6h3a3,3,0,0,1,0,6Zm-3-4a1,1,0,0,0,0,2h3a1,1,0,0,0,0-2Z"></path><path d="M49,46a3,3,0,0,1-3-3,3,3,0,0,1,3-3h3a3,3,0,0,1,3,3,3,3,0,0,1-.89,2.13,2.75,2.75,0,0,1-.64.48,1,1,0,1,1-1-1.74,1,1,0,0,0,.21-.17A.94.94,0,0,0,53,43a1,1,0,0,0-1-1H49a.93.93,0,0,0-.69.29A1,1,0,0,0,48,43a1,1,0,0,0,1,1,1,1,0,0,1,0,2Z"></path><path d="M41,54H38a3,3,0,0,1,0-6h3a3,3,0,0,1,0,6Zm-3-4a1,1,0,0,0,0,2h3a1,1,0,0,0,0-2Z"></path><path d="M52,54H49a3,3,0,0,1,0-6h3a3,3,0,0,1,0,6Zm-3-4a1,1,0,0,0,0,2h3a1,1,0,0,0,0-2Z"></path></g></svg>