<svg xmlns="http://www.w3.org/2000/svg" viewBox="0 0 64 64"><title>nerve</title><g id="nerve"><path d="M47.25,10a1,1,0,0,1-.57-.18l-.21-.13-.17-.11a1,1,0,1,1,1.08-1.68l.14.08.3.2a1,1,0,0,1,.25,1.39A1,1,0,0,1,47.25,10Z"></path><path d="M17.37,36.1a1,1,0,0,1-1-.79,16.52,16.52,0,0,0-3.29-7.08,13.65,13.65,0,0,1-3-9.86A13.73,13.73,0,0,1,22.38,6.05,13.35,13.35,0,0,1,28,6.74a12.07,12.07,0,0,0,8,0,13.49,13.49,0,0,1,5.63-.68,12.66,12.66,0,0,1,1.74.28,1,1,0,1,1-.46,1.94,10,10,0,0,0-1.46-.22,11.5,11.5,0,0,0-4.79.57,14.19,14.19,0,0,1-9.3,0,11.34,11.34,0,0,0-4.79-.58,11.69,11.69,0,0,0-10.51,10.5A11.54,11.54,0,0,0,14.64,27a18.68,18.68,0,0,1,3.71,7.93,1,1,0,0,1-.77,1.2Z"></path><path d="M40.34,50l-.44,0a3.69,3.69,0,0,1-.79-.13A5.15,5.15,0,0,1,35.29,46l0-.11-1.78-7.3A1.46,1.46,0,0,0,32,37.47h0a1.46,1.46,0,0,0-1.48,1.16L28.71,46a5.2,5.2,0,0,1-10.14-.19L18,43.07c-.25-1.24-.52-2.56-.8-3.87a1,1,0,0,1,2-.42c.27,1.32.55,2.64.8,3.88l.58,2.79a3.2,3.2,0,0,0,5.11,1.87,3.15,3.15,0,0,0,1.13-1.76l1.81-7.41A3.47,3.47,0,0,1,32,35.47h0a3.47,3.47,0,0,1,3.42,2.68l1.76,7.22h0a.91.91,0,0,1,0,.12,3.23,3.23,0,0,0,2.37,2.42A3.5,3.5,0,0,0,40,48l.31,0a3.2,3.2,0,0,0,3.13-2.55c.59-2.84,1.44-7,2.12-10.31A18.66,18.66,0,0,1,49.36,27a11.55,11.55,0,0,0,0-14.68A1,1,0,0,1,50.91,11a13.47,13.47,0,0,1,2.58,12.28,13.36,13.36,0,0,1-2.59,4.95,16.62,16.62,0,0,0-3.35,7.31C46.87,38.87,46,43,45.43,45.85A5.18,5.18,0,0,1,40.34,50Z"></path><path d="M24,46a1,1,0,0,1-1-.73c-.08-.3-2-7.2-2.67-10.53a20.78,20.78,0,0,0-4.18-9.06,9.38,9.38,0,0,1-1.83-3.48A9.53,9.53,0,0,1,14,18.73a9.39,9.39,0,0,1,1.87-4.82,1,1,0,0,1,1.6,1.2A7.41,7.41,0,0,0,16,18.9a7.52,7.52,0,0,0,1.7,5.5,22.84,22.84,0,0,1,4.6,9.93c.34,1.65,1,4.27,1.57,6.46l.79-3.58a7.53,7.53,0,0,1,14.62,0l.79,3.58c.58-2.19,1.24-4.81,1.58-6.46a22.58,22.58,0,0,1,4.6-9.92A7.58,7.58,0,0,0,41.09,12a5.8,5.8,0,0,0-.7,0,7.5,7.5,0,0,0-2.43.4,18.24,18.24,0,0,1-11.92,0A7.49,7.49,0,0,0,22.9,12a7.06,7.06,0,0,0-2.73.8,1,1,0,1,1-.94-1.76,9.15,9.15,0,0,1,3.5-1,9.47,9.47,0,0,1,4,.49,16.25,16.25,0,0,0,10.6,0,8.94,8.94,0,0,1,4-.46,9.58,9.58,0,0,1,6.52,15.63,20.53,20.53,0,0,0-4.18,9C43,38.07,41,45,41,45.27A1,1,0,0,1,40,46a1,1,0,0,1-.95-.79l-1.66-7.55a5.52,5.52,0,0,0-10.72,0L25,45.22A1,1,0,0,1,24,46Z"></path><path d="M40.34,50h-.41l-.07,0a3.53,3.53,0,0,1-.75-.12,5.41,5.41,0,0,1-3.81-3.77s0-.13,0-.15l-1.78-7.3A1.46,1.46,0,0,0,32,37.47h0a1.46,1.46,0,0,0-1.48,1.16L28.71,46a5.2,5.2,0,0,1-10.14-.19L18,43.07c-.25-1.24-.52-2.56-.8-3.87a1,1,0,0,1,2-.42c.27,1.32.55,2.64.8,3.88l.58,2.79a3.2,3.2,0,0,0,5.11,1.87,3.15,3.15,0,0,0,1.13-1.76l1.81-7.41A3.47,3.47,0,0,1,32,35.47h0a3.47,3.47,0,0,1,3.42,2.68l1.76,7.22h0a.91.91,0,0,1,0,.12,3.44,3.44,0,0,0,2.38,2.42A3.11,3.11,0,0,0,40,48l.14,0h.17a3.2,3.2,0,0,0,3.13-2.55c.59-2.84,1.44-7,2.12-10.31A18.66,18.66,0,0,1,49.36,27a11.4,11.4,0,0,0,2.21-4.22,1,1,0,0,1,1-.73H57a1,1,0,0,1,1,1V40a17.64,17.64,0,0,1-1.23,6.52,1,1,0,0,1-1.94-.33h0a.94.94,0,0,1,.07-.37A15.7,15.7,0,0,0,56,40V24H53.27a13.47,13.47,0,0,1-2.37,4.23,16.62,16.62,0,0,0-3.35,7.31C46.87,38.87,46,43,45.43,45.85A5.18,5.18,0,0,1,40.34,50Z"></path><path d="M40,58H24A18,18,0,0,1,6,40V23a1,1,0,0,1,1-1h4.47a1,1,0,0,1,1,.73A11.4,11.4,0,0,0,14.64,27a18.68,18.68,0,0,1,3.71,7.93,1,1,0,1,1-2,.43,16.52,16.52,0,0,0-3.29-7.08A13.58,13.58,0,0,1,10.73,24H8V40A16,16,0,0,0,24,56H40a16,16,0,0,0,13.13-6.87,1,1,0,1,1,1.64,1.14A18,18,0,0,1,40,58Z"></path><path d="M24,53a1,1,0,0,1-1-1V45a1,1,0,0,1,2,0v7A1,1,0,0,1,24,53Z"></path><path d="M24,58a1,1,0,0,1-1-1V55a1,1,0,0,1,2,0v2A1,1,0,0,1,24,58Z"></path><path d="M40,52a1,1,0,0,1-1-1V45a1,1,0,0,1,2,0v6A1,1,0,0,1,40,52Z"></path><path d="M40,58a1,1,0,0,1-1-1V54a1,1,0,0,1,2,0v3A1,1,0,0,1,40,58Z"></path><path d="M24,45a1,1,0,0,1-1-1V29a.94.94,0,0,1,.07-.37l1.82-4.54-2.75-4.58a1,1,0,0,1,1.72-1l3,5a1,1,0,0,1,.07.88L25,29.19V44A1,1,0,0,1,24,45Z"></path><path d="M40,45a1,1,0,0,1-1-1V29.19l-1.93-4.82a1,1,0,0,1,.07-.88l3-5a1,1,0,0,1,1.72,1l-2.75,4.58,1.82,4.54A.94.94,0,0,1,41,29V44A1,1,0,0,1,40,45Z"></path><path d="M24.15,21.92a1,1,0,0,1-.69-.28,1,1,0,0,1,0-1.41l1.85-1.92a1,1,0,0,1,1.44,1.38l-1.85,1.92A1,1,0,0,1,24.15,21.92Z"></path><path d="M25.65,25.88a1.25,1.25,0,0,1-.32-.05L22.69,25a1,1,0,1,1,.62-1.9l2.65.88a1,1,0,0,1-.31,1.95Z"></path><path d="M24,32a1,1,0,0,1-.89-.55,1,1,0,0,1,.44-1.34l2-1a1,1,0,0,1,.9,1.78l-2,1A.93.93,0,0,1,24,32Z"></path><path d="M39.85,21.92a1,1,0,0,1-.72-.31l-1.85-1.92a1,1,0,1,1,1.44-1.38l1.85,1.92a1,1,0,0,1,0,1.41A1,1,0,0,1,39.85,21.92Z"></path><path d="M39,27a1,1,0,0,1-.89-.55,1,1,0,0,1,.44-1.34l2-1a1,1,0,1,1,.9,1.78l-2,1A.93.93,0,0,1,39,27Z"></path></g></svg>