<svg xmlns="http://www.w3.org/2000/svg" viewBox="0 0 64 64"><title>tooth insurance</title><g id="tooth_insurance" data-name="tooth insurance"><path d="M11.32,12.51a1,1,0,0,1-.65-.24,1,1,0,0,1-.11-1.41,2.83,2.83,0,0,1,.3-.3,1,1,0,0,1,1.3,1.52l-.08.08A1,1,0,0,1,11.32,12.51Z"></path><path d="M41.93,58a6,6,0,0,1-5.83-4.57l-2.16-8.82a2,2,0,0,0-3.88,0L27.9,53.43a5.88,5.88,0,0,1-2.12,3.29,6,6,0,0,1-9.58-3.5l-1-4.88c-.51-2.46-1-5.09-1.53-7.4a19.82,19.82,0,0,0-4-8.78,16,16,0,0,1-3.59-11.6,15.81,15.81,0,0,1,2-6.37,1,1,0,0,1,1.74,1,13.72,13.72,0,0,0-1.73,5.57,13.91,13.91,0,0,0,3.13,10.14,21.92,21.92,0,0,1,4.44,9.66c.48,2.3,1,4.93,1.53,7.4l1,4.88A4,4,0,0,0,22.07,56a4.07,4.07,0,0,0,2.48-.85A4,4,0,0,0,26,53l2.16-8.83a4,4,0,0,1,7.76,0L38,53a4,4,0,0,0,5.8,2.56A14,14,0,0,1,39,44.8V42a1,1,0,0,1,2,0v2.8a11.79,11.79,0,0,0,5,9.86,1,1,0,0,1,.44.72,1,1,0,0,1-.26.8,5.25,5.25,0,0,1-.49.46A6,6,0,0,1,41.93,58Z"></path><path d="M40,39a1,1,0,0,1-1-1V36a1,1,0,0,1,.68-1l9-3a1,1,0,0,1,.64,0l2.13.71a17.33,17.33,0,0,1,1.36-1.87,14,14,0,0,0,3.13-10.15,14,14,0,0,0-18.48-12,16.59,16.59,0,0,1-10.93,0,14.13,14.13,0,0,0-5.79-.69,13.72,13.72,0,0,0-5.57,1.73,1,1,0,0,1-1-1.74,15.81,15.81,0,0,1,6.37-2,16.07,16.07,0,0,1,6.62.8,14.46,14.46,0,0,0,9.63,0,16,16,0,0,1,17.54,25.3,15.57,15.57,0,0,0-1.59,2.3,1,1,0,0,1-1.19.45L49,34.05l-8,2.67V38A1,1,0,0,1,40,39Z"></path><path d="M32,16a24.28,24.28,0,0,1-11.52-3.15,1,1,0,1,1,1-1.7A22.8,22.8,0,0,0,32,14a22.69,22.69,0,0,0,10.48-2.85,1,1,0,1,1,1,1.7A24.28,24.28,0,0,1,32,16Z"></path><path d="M49,58l-.22,0a11.34,11.34,0,0,1-3.85-1.65A13.85,13.85,0,0,1,39,44.8V42a1,1,0,0,1,2,0v2.8a11.79,11.79,0,0,0,5,9.86A9,9,0,0,0,49,56c4.65-1.15,8-5.81,8-11.17V36.72l-8-2.67-8,2.67V38a1,1,0,0,1-2,0V36a1,1,0,0,1,.68-1l9-3a1,1,0,0,1,.64,0l9,3A1,1,0,0,1,59,36v8.8c0,6.38-4.11,11.92-9.78,13.18Z"></path><path d="M48,48a1,1,0,0,1-.71-.29l-2-2a1,1,0,0,1,1.42-1.42L48,45.59l4.29-4.3a1,1,0,0,1,1.42,1.42l-5,5A1,1,0,0,1,48,48Z"></path></g></svg>